# xmcd CD database file
#
# Track frame offsets:
#	150
#	22210
#	46452
#
# Disc length: 1008 seconds
#
# Revision: 0
# Processed by: cddbd v1.5.1PL0 Copyright (c) Steve Scherf et al.
# Submitted via: CDex 1.51
#
DISCID=2303ee03
DTITLE=西村智彦 - Maybe Tomorrow
DYEAR=1998
DGENRE=JPop
TTITLE0=Maybe Tomorrow(featuring Jane Child)
TTITLE1=Fate Of Encounter II
TTITLE2=Graffiti〜今日という一日〜（featuring 今滝真理子）
EXTD=YEAR: 1998
EXTT0=
EXTT1=
EXTT2=
PLAYORDER=
